<svg width="24" height="24" viewBox="0 0 17 17" fill="none" xmlns="http://www.w3.org/2000/svg">
    <path d="M12.5235 1.79297H4.22204C2.80259 1.79297 1.64551 2.95006 1.64551 4.36951V12.671C1.64551 14.0904 2.80259 15.2475 4.22204 15.2475H12.5235C13.7479 15.2475 14.7704 14.3864 15.0328 13.2428C15.0731 13.1688 15.1001 13.0881 15.1001 13.0006V4.36951C15.1001 2.95006 13.943 1.79297 12.5235 1.79297ZM13.0281 9.21315C13.0281 9.48897 12.7993 9.7177 12.5235 9.7177C12.241 9.7177 12.019 9.48897 12.019 9.21315V7.82733C12.019 7.55151 12.241 7.32279 12.5235 7.32279C12.7993 7.32279 13.0281 7.55151 13.0281 7.82733V9.21315ZM3.7175 9.21315V7.82733C3.7175 7.55151 3.94623 7.32279 4.22204 7.32279C4.50459 7.32279 4.72659 7.55151 4.72659 7.82733V9.21315C4.72659 9.48897 4.50459 9.7177 4.22204 9.7177C3.94623 9.7177 3.7175 9.48897 3.7175 9.21315ZM10.9493 6.44824V10.5922C10.9493 10.8748 10.7273 11.0968 10.4448 11.0968C10.169 11.0968 9.94023 10.8748 9.94023 10.5922V6.44824C9.94023 6.1657 10.169 5.9437 10.4448 5.9437C10.7273 5.9437 10.9493 6.1657 10.9493 6.44824ZM8.87733 5.06242V11.9781C8.87733 12.2539 8.6486 12.4826 8.37278 12.4826C8.09696 12.4826 7.86823 12.2539 7.86823 11.9781V5.06242C7.86823 4.78661 8.09696 4.55788 8.37278 4.55788C8.6486 4.55788 8.87733 4.78661 8.87733 5.06242ZM6.80533 6.44824V10.5922C6.80533 10.8748 6.57661 11.0968 6.30079 11.0968C6.01824 11.0968 5.79624 10.8748 5.79624 10.5922V6.44824C5.79624 6.1657 6.01824 5.9437 6.30079 5.9437C6.57661 5.9437 6.80533 6.1657 6.80533 6.44824Z" fill="black"/>
</svg>