<svg width="17" height="20" viewBox="0 0 11 15" fill="none" xmlns="http://www.w3.org/2000/svg">
    <path d="M9.04831 0.763672H2.13265C1.09665 0.763672 0.249023 1.60457 0.249023 2.6473V12.3278C0.249023 13.3706 1.09665 14.2182 2.13265 14.2182H9.04831C10.091 14.2182 10.9319 13.3706 10.9319 12.3278V2.6473C10.9319 1.60457 10.091 0.763672 9.04831 0.763672ZM2.82558 10.4711H8.35538C8.63792 10.4711 8.85992 10.6999 8.85992 10.9757C8.85992 11.2515 8.63792 11.4802 8.35538 11.4802H2.82558C2.54976 11.4802 2.32103 11.2515 2.32103 10.9757C2.32103 10.6999 2.54976 10.4711 2.82558 10.4711ZM2.32103 7.51785C2.32103 7.24203 2.54976 7.0133 2.82558 7.0133H8.35538C8.63792 7.0133 8.85992 7.24203 8.85992 7.51785C8.85992 7.80039 8.63792 8.02239 8.35538 8.02239H2.82558C2.54976 8.02239 2.32103 7.80039 2.32103 7.51785ZM8.35538 4.56458H2.82558C2.54976 4.56458 2.32103 4.34258 2.32103 4.06003C2.32103 3.78421 2.54976 3.55549 2.82558 3.55549H8.35538C8.63792 3.55549 8.85992 3.78421 8.85992 4.06003C8.85992 4.34258 8.63792 4.56458 8.35538 4.56458Z" fill="black"/>
</svg>