<svg width="24" height="24" viewBox="0 0 17 17" fill="none" xmlns="http://www.w3.org/2000/svg">
    <path d="M7.75747 6.51172V7.80336C7.2731 7.68227 6.9502 7.40645 6.9502 7.15754C6.9502 6.9019 7.2731 6.62608 7.75747 6.51172Z" fill="black"/>
    <path d="M9.57387 9.57942C9.57387 9.82833 9.25097 10.1041 8.7666 10.2252V8.93359C9.25097 9.04796 9.57387 9.32378 9.57387 9.57942Z" fill="black"/>
    <path d="M12.8973 3.72587C11.6595 2.48805 10.0113 1.80859 8.26222 1.80859C6.51312 1.80859 4.86494 2.48805 3.62713 3.72587C2.38258 4.96368 1.70312 6.61187 1.70312 8.36768C1.70312 9.22878 1.87131 10.0764 2.20094 10.877C2.53058 11.6775 3.01494 12.3906 3.62713 13.0028C4.23258 13.615 4.9524 14.0926 5.75294 14.4222C6.55349 14.7586 7.3944 14.9268 8.26222 14.9268C9.13003 14.9268 9.97094 14.7586 10.7715 14.4222C11.572 14.0926 12.2919 13.615 12.8973 13.0028C13.5095 12.3906 13.9939 11.6775 14.3235 10.877C14.6531 10.0764 14.8213 9.22878 14.8213 8.36768C14.8213 6.61187 14.1419 4.96368 12.8973 3.72587ZM8.76676 11.2537V11.395C8.76676 11.6708 8.53803 11.8995 8.26222 11.8995C7.9864 11.8995 7.75767 11.6708 7.75767 11.395V11.247C7.16567 11.1528 6.64094 10.8971 6.30458 10.5137C6.15658 10.3388 6.14312 10.0831 6.27767 9.89477C6.41222 9.69968 6.6544 9.63241 6.86967 9.71314L7.75767 10.0495V8.82514C6.70822 8.66368 5.94131 7.98423 5.94131 7.15677C5.94131 6.32259 6.70822 5.64987 7.75767 5.48168V5.34041C7.75767 5.05787 7.9864 4.83587 8.26222 4.83587C8.53803 4.83587 8.76676 5.05787 8.76676 5.34041V5.48168C9.35876 5.58259 9.88349 5.83823 10.2199 6.21496C10.3679 6.38987 10.3813 6.6455 10.2468 6.8406C10.1526 6.97514 9.99785 7.05587 9.8364 7.05587C9.77585 7.05587 9.71531 7.04241 9.65476 7.02223L8.76676 6.67914V7.9035C9.81622 8.06496 10.5831 8.74441 10.5831 9.5786C10.5831 10.4128 9.81622 11.0855 8.76676 11.2537Z" fill="black"/>
</svg>